<?xml version="1.0" encoding="UTF-8"?>
<svg xmlns="http://www.w3.org/2000/svg" xmlns:xlink="http://www.w3.org/1999/xlink" viewBox="0 0 800 800">
  <defs>
    <style>
      .uuid-324448dc-c69d-4b5f-9218-5a6f17aec463 {
        fill: url(#uuid-bd9d2852-2c43-4223-b03b-7b7e5f3de56c);
      }

      .uuid-23b41528-0026-4045-9387-e9b50ca2e89e {
        fill: url(#uuid-043c7667-7fbb-497d-8899-fc4225aa348d);
      }

      .uuid-883c2a75-ab90-4ba7-bcab-d5f73532cd58 {
        fill: url(#uuid-ee7d7485-6e12-4047-b116-f1c8a786f5a9);
      }

      .uuid-0fb5c3b9-ecd2-4b13-af38-383fc233efaf {
        fill: #1d2532;
      }

      .uuid-6c6edca7-e475-4361-9cee-87103caa8f0f {
        fill: #deb88b;
        font-family: HandelGothic-Regular, HandelGothic;
        font-size: 43.84px;
      }
    </style>
    <linearGradient id="uuid-bd9d2852-2c43-4223-b03b-7b7e5f3de56c" x1="94.8" y1="399.95" x2="705.72" y2="399.95" gradientUnits="userSpaceOnUse">
      <stop offset="0" stop-color="#d9c48f"/>
      <stop offset="1" stop-color="#bb9a65"/>
    </linearGradient>
    <linearGradient id="uuid-ee7d7485-6e12-4047-b116-f1c8a786f5a9" x1="236.5" y1="382.88" x2="564" y2="382.88" xlink:href="#uuid-bd9d2852-2c43-4223-b03b-7b7e5f3de56c"/>
    <linearGradient id="uuid-043c7667-7fbb-497d-8899-fc4225aa348d" x1="294" y1="383.5" x2="509" y2="383.5" xlink:href="#uuid-bd9d2852-2c43-4223-b03b-7b7e5f3de56c"/>
  </defs>
  <g id="uuid-2ef2708b-5e7b-4e04-a4c0-44a784a4b979" data-name="Background">
    <rect class="uuid-0fb5c3b9-ecd2-4b13-af38-383fc233efaf" width="800" height="800"/>
  </g>
  <g id="uuid-81e6dc0b-c282-4da9-9939-ddbfe8c2d8fe" data-name="Objects">
    <g>
      <path class="uuid-324448dc-c69d-4b5f-9218-5a6f17aec463" d="M594.71,230.67c-7.78-14.78-17.07-28.3-26.82-41.54-4.05-5.5-7.87-11.2-9.96-17.79-.85-2.67-1.26-5.82,1.04-7.87,2.82-2.51,5.21.13,7.34,1.69,22.8,16.76,42.21,36.31,51,64.14,2.69,8.52,4.71,17.38-3.1,24.74-1.41,1.33-1.3,2.68-.43,4.05,8.14,12.77,14.68,26.38,21.12,40.14-1.33-14.13-4.59-27.79-8.04-41.42-1.73-6.85-3.21-13.77-4.58-20.71-.99-5.04-.79-10.11,1.17-14.94,2.52-6.23,6.79-7.05,10.48-1.37,14.75,22.72,26.7,46.56,26.43,74.61-.12,12.2-1.5,23.96-14.05,30.51-1.84.96-2.23,2.52-1.72,4.5,3.66,14.14,6.23,28.49,8.1,43.07,3.46-14.74,5.59-29.57,6.83-44.52.78-9.38,2.24-18.57,5.9-27.28,1.48-3.51,3.52-6.73,6.83-8.91,5.4-3.55,9.64-2.63,10.88,3.72,5.79,29.78,9.22,59.59-4.77,88.34-4.5,9.24-10.55,16.75-21.67,18.06-2.87.34-3.72,2.05-3.88,4.64-.84,14.12-2.66,28.11-6.44,43.04,3.44-2.08,4.22-4.67,5.38-6.87,7.41-14.1,14.69-28.27,22.17-42.33,3.7-6.95,8.09-13.43,14.5-18.28,3.54-2.67,7.38-4.21,11.94-4.05,3.87.14,5.65,2.01,5.31,5.7-2.55,27.49-7.89,54.18-25.23,76.7-9.66,12.53-21.52,21.66-38.87,18.28-3.06-.6-4.18,1-5.03,3.25-5.63,14.88-12.39,29.21-20.05,43.37,14.99-13.42,29.91-26.93,45.01-40.22,8.24-7.24,17.21-13.68,28.48-14.88,9.63-.99,17.79,5.07,15.28,12.39-3.22,9.42-13.42,19.81-18.99,28.4-7.84,12.08-18.12,22.89-30.34,30.59-15.9,10.03-32.71,16.39-51.29,6.3-2-1.08-3.8-1.33-5.35.72-8.21,10.84-17.66,20.6-26.53,31.36,11.38-4.52,22.74-9.1,34.16-13.54,11.31-4.41,22.66-8.66,34.86-10.05,7.72-.88,15.19-.09,22.24,3.09,8.13,3.67,8.62,6.42,2.16,12.55-20.27,19.23-43.94,32.14-71.42,37.82-11.49,2.37-22.94,3.72-34.46,0-3.42-1.1-6.99-2.18-9.36-4.77-4.44-4.87-8.24-3.76-13.07-.46-8.52,5.83-17.69,10.65-26.76,16.28,10.54-1.23,21.08-2.55,31.63-3.68,13.1-1.41,26.22-2.12,39.19.97,7,1.67,13.34,4.58,17.73,10.78,2.73,3.85,2.39,6.23-2.3,7.91-18.18,6.51-36.79,11.29-56.11,12.19-15.39.72-30.87.97-46.02-2.89-6.68-1.7-13.19-3.87-17.68-9.54-2.3-2.9-5.11-2.87-8.2-2.18-6.88,1.55-13.76,3.13-20.76,5.61,8.64,1.23,17.31,2.33,25.93,3.72,8.48,1.37,16.97,2.88,24.86,6.49,4.93,2.25,9.17,5.48,11.89,10.24,2.91,5.09,1.32,7.51-4.32,7.48-26.09-.16-51.12-5.99-75.67-14.21-9.33-3.12-18.92-5.65-27.67-10.32-2.48-1.32-4.57-1.16-7.14-.08-26.65,11.26-54.09,19.83-82.92,23.26-7.01.83-14.12.84-21.18,1.22-5.2.28-5.45-2.93-4.01-6.43,2.48-6,7.67-9.26,13.41-11.59,15.39-6.26,31.86-7.09,49.26-9.58-8.52-1.75-15.89-3.3-23.28-4.78-1.73-.35-3.53-.66-4.96.89-9.86,10.66-23.36,11.53-36.34,12.57-27.29,2.17-53.98-1.56-79.86-10.61-9.98-3.49-10.6-6.79-2.23-13.53,10.82-8.71,23.89-9.04,36.8-8.52,12.76.51,25.48,2.05,38.59,2.11-8.42-4.81-16.85-9.6-25.26-14.43-2.27-1.31-3.75.12-5.42,1.29-8.5,5.95-18.26,7.71-28.21,6.83-34.03-3.01-63.13-17.02-87.56-40.78-5.82-5.66-5.34-7.99,2-11.51,10.63-5.1,21.62-4.19,32.63-1.59,16.51,3.9,31.93,10.91,49.71,17.93-8.15-9.18-14.89-16.75-21.6-24.35-1.56-1.76-3.28-1.89-5.46-1.24-21.56,6.45-39.17-2.22-55.14-15.31-17.85-14.63-29.08-34.06-37.79-55.13-2.61-6.31,0-9.09,5.97-9.87,7.88-1.02,14.96,1.4,21.64,5.37,14.29,8.48,25.36,20.81,37.71,31.61,1.48,1.3,3.01,2.54,5.67,3.16-4.01-9.55-7.97-19.12-12.05-28.64-.78-1.81-2.59-2.29-4.47-2.29-15.65,0-25.81-9.43-34.16-20.94-12.43-17.15-18.52-36.92-21.54-57.69-.83-5.74-1.16-11.55-1.61-17.34-.3-3.89,1.79-5.34,5.52-5.4,7.04-.12,11.94,3.85,16.22,8.59,8.41,9.31,13.18,20.9,19.12,31.74,2.25,4.1,4.33,8.29,7.7,11.98-.58-8.22-1.18-16.44-1.71-24.67-.15-2.29-1.27-3.82-3.31-4.64-12.1-4.85-16.59-15.7-20.76-26.64-7.73-20.3-5.59-41.3-3.85-62.22.4-4.76,1.35-9.49,2.25-14.2.67-3.53,1.68-7.33,5.84-7.99,3.81-.61,6.79,1.8,9.05,4.65,6.28,7.88,7.66,17.42,8.82,27,1.11,9.15,1.32,18.44,4.16,29.57,2.23-9.55,3.99-17.03,5.72-24.52.41-1.79.3-3.38-1.04-4.93-11.31-13.07-10.38-28.54-7.69-43.89,3.58-20.47,12.62-38.85,23.83-56.19,1.73-2.68,3.43-6.31,7.4-5.42,4.06.91,4.93,4.86,5.46,8.35,1.62,10.54-1.32,20.56-3.89,30.61-1.73,6.76-3.4,13.54-4.21,20.62,3.99-6.67,7.97-13.35,11.97-20.02,1.09-1.82,1.73-3.69.82-5.75-3.59-8.1-1.5-16.01,1.27-23.64,9.8-27.05,29.12-46.31,51.98-62.57,1.7-1.21,3.66-2.35,5.46-.52,1.9,1.93,2.32,4.51,1.5,7.09-2.01,6.35-5.62,11.86-9.38,17.26-5.61,8.06-11.31,16.05-16.2,24.76,5.53-4.94,11.05-9.89,16.58-14.83,1.37-1.22,2.46-2.59,2.44-4.52-.08-8.36,5.07-14.04,10.14-19.71,17.66-19.73,40.66-30.4,65.29-38.24,2.57-.82,5.8-2.54,7.72.27,2.38,3.5-1.54,5.19-3.3,7.41-.46.57-.91,1.15-2.33,2.94,13.87-5.1,26.24-10.55,39.64-12.51.25-.04.49-.18.74-.17,40.52,1.59,81.79-7.72,121.32,8.33,4.15,1.68,8.24,3.5,12.49,5.31,0-.54.09-.83-.01-.96-2.59-3.11-9.25-4.94-6.78-9.58,2.76-5.19,8.3-.96,12.16.34,23.75,8,45.93,18.8,62.38,38.57,5.23,6.28,11.71,12.52,7.25,22.21-.72,1.56.68,2.82,1.87,3.8,10.93,9,20.6,19.27,30.24,29.49ZM298,612.3c-8.64-8.46-16.43-17.47-21.39-28.41-7.34-16.22-9.42-32.62,1.43-48.31,4.36-6.31,6.51-5.99,9.46,1.14,8.92,21.55,19.51,42.21,32.17,61.82,4.42,6.85,7.59,14.3,8.16,22.6.15,2.19.77,3.97,2.98,4.8,9.28,3.47,18.72,6.22,28.74,6.72-13.56-6.49-25.42-14.87-33.51-27.67-4.38-6.92-7.73-14.32-5.15-22.89.71-2.37,1.04-5.5,3.86-6,2.48-.44,3.71,2.35,5.02,4.06,17.66,23.1,39.99,40.57,65.16,54.78,3.87,2.18,6.38,2.14,10.21-.04,25.35-14.37,47.94-31.88,65.63-55.34,3.71-4.92,6.15-4.32,8.07,1.63,2.61,8.1.25,15.46-3.97,22.4-7.45,12.24-18.27,20.72-30.84,27.37,3.26-.44,6.31-1.36,9.4-2.09,10.57-2.5,21.63-4.3,21.34-19.1-.04-1.82,1.4-3.77,2.41-5.51,4.47-7.64,9.06-15.2,13.56-22.82,8.5-14.41,15.28-29.65,21.84-45.01,2.86-6.69,4.67-6.89,9.18-1.2,3.34,4.22,5.52,9.06,6.55,14.36,3.61,18.57-2.8,34.3-13.87,48.69-1.58,2.05-3.13,4.12-4.69,6.18,6.78-2.7,12.33-6.71,18.32-9.88,7.16-3.79,9.68-8.56,6.35-16.42-1.22-2.86-.99-6.48-.9-9.74.76-26.68,7.09-52.51,12.18-78.53.95-4.86,3.49-4.76,7.09-2.74,14.5,8.15,20.45,21.14,20.86,37.1.34,13.04-3.31,25.34-8.77,39.08,9.14-7.74,15.32-15.61,21.52-23.47,2.09-2.65,1.47-5.08-.46-7.55-6.92-8.84-9.9-19.22-11.59-30.09-2.62-16.88-1.23-33.75.03-50.65,1.05-14.11,5.09-16.47,17.44-9.09,2.57,1.53,4.99,3.54,6.99,5.76,8.4,9.32,11.13,20.76,11.51,32.91.2,6.32.04,12.65.04,18.97,4.99-7.38,8.31-15,11.67-22.6,1.38-3.13,1.17-5.74-1.75-8.05-10.25-8.12-15.23-19.58-18.1-31.7-3.72-15.71-6.37-31.69-9.17-47.61-1.19-6.75,1.76-9.63,8.56-8.67,11.01,1.54,17.99,8.61,23.08,17.86,5.29,9.6,8.27,20.01,10.6,32.95,1.82-10.31,3.15-18.47,3.37-26.8.07-2.81-.89-4.88-3.43-6.22-11.08-5.83-17.68-15.68-23.15-26.37-6.8-13.27-13.29-26.7-19.85-40.1-1.77-3.61-4.25-7.56-1.17-11.32,2.88-3.52,7.4-2.79,11.4-2.31,4.09.49,7.67,2.41,10.99,4.85,6.86,5.05,11.72,11.81,16.2,18.89,2.13,3.37,4.14,6.82,7.35,12.11-.55-9.53-2.41-16.34-4.06-23.2-.57-2.36-1.75-3.95-4.46-4.46-8.87-1.69-15.45-7.32-21.59-13.4-14.24-14.11-25.04-31.1-38.24-46.11-3.9-4.44-1.84-8.74,4.22-9.49,10.05-1.24,18.21,3.28,25.71,9.2,4.85,3.83,9.39,8.06,14.78,12.72-5.4-14.83-7.53-16.77-20.51-20.87-3.82-1.21-7.58-2.92-10.99-5.02-18.55-11.45-34.23-26.79-52.42-38.76-2.43-1.6-4.12-3.95-2.83-7.12,1.27-3.11,4.1-3.3,6.98-3.45,3.63-.19,7.03.85,10.39,1.9,8.42,2.65,16.18,6.84,24.26,10.47-5.48-4.69-8.26-13.12-17.23-12.82-7.59.26-14.49-1.94-21.27-4.8-18.17-7.67-35.29-17.62-53.79-24.61-2.59-.98-6.55-2.12-5.78-5.98.84-4.19,4.92-3.51,8.14-3.72,8.31-.53,15.97,2.97,25.6,4.7-6.19-4.22-11.3-5.7-17.11-5.31-4.77.32-9.56.25-14.34-.79-21.48-4.66-43.01-9.11-64.51-13.72-4.75-1.02-9.39-1.42-14.23-.33-17.01,3.83-34.03,7.64-51.11,11.16-11.58,2.39-23.14,5.72-35.19,2.71-1.33-.33-3.07.08-4.38.68-7.29,3.33-14.5,6.82-21.74,10.25,6.83-1.12,13.17-3.36,19.58-5.44,6.99-2.26,14.07-4.15,21.52-3.91,3.04.1,6.75-.21,7.57,3.47.85,3.79-2.91,5.2-5.53,6.17-19.73,7.3-37.89,18.05-57.33,25.96-7.62,3.1-15.4,5.09-23.56,2.05-1.62-.6-2.91-.39-4.18.7-9.64,8.35-19.29,16.69-26.47,27.46,11.28-9.17,23.63-16.46,36.98-22.01,5.59-2.32,11.25-4.56,17.54-4.26,3.07.14,5.49,1.04,6.48,4.17.93,2.97-.87,4.95-3.01,6.34-18.49,11.98-34.32,27.58-53.14,39.09-6.75,4.13-13.9,7.52-22.21,5.06-3.01-.89-4.85.39-6.29,2.78-7.18,11.99-13.53,24.36-17.94,37.68,10.23-14.74,22.1-27.69,37.25-37.4,5.76-3.69,12.04-5.34,18.81-4.39,5.83.81,7.95,4.75,4.43,8.87-13.78,16.14-25.42,34.1-40.88,48.81-6.87,6.53-14.35,12.14-24.68,11.47-2.52-.16-4.45.83-5.06,3.54-3.2,14.04-5.98,28.13-5.66,42.64,6.12-15.75,13.03-30.91,24.44-43.52,6.1-6.75,13.06-12.1,22.93-11.23,6.86.61,9.56,4.14,6.49,10.16-9.07,17.78-15.9,36.72-27.06,53.39-5.66,8.45-12.31,16.21-23.04,18.59-3.86.86-4.57,3.57-4.24,6.88,1.47,14.53,3.55,28.94,7.84,44.3,1.83-19.77,3.6-38.15,13.48-54.47,4.59-7.57,10.51-13.65,19.43-15.92,9.22-2.34,12.45.63,10.86,9.93-2.13,12.44-4.01,24.94-6.61,37.29-3.15,14.96-7.67,29.38-19.67,40.16-2.95,2.64-8.9,2.59-9.02,7.07-.1,3.69,2.73,7.45,4.25,11.19.38.94.6,1.95,1.06,2.84,4.48,8.78,8.52,17.83,15.21,25.55-2.89-11.24-.16-23.11-4.9-33.89-.59-1.35-.32-1.59.56-2.13,3.12-1.9,2.58-5.19,3.14-8.11,2.79-14.61,8.49-27.03,24.07-32.16,6.08-2,9.63-1,10.37,6.18,1.59,15.35,3.15,30.72,1.92,46.13-1.33,16.57-4.58,32.63-17.1,45.07-2.81,2.79-.9,5.15.98,7.24,5.56,6.22,11.09,12.48,16.93,18.43,3.11,3.16,5.68,7.23,11.75,9.4-8.37-17-13.84-33.06-12.77-50.86.83-13.91,6.46-24.74,17.94-32.51,7.31-4.95,8.66-4.45,10.28,4.03,3.08,16.13,6.18,32.26,8.92,48.44,2.66,15.69,6.09,31.47-1.37,46.91-1.31,2.7.44,4.25,2.43,5.59,10.47,7.06,21.14,13.77,33.06,18.55ZM495.62,151.71c.77,3.96-.89,7.63,3.69,9.48,12.79,5.17,24.83,11.87,36.87,18.6-12.11-10.95-25.39-20.13-40.57-28.08ZM457.82,146.93c-29.58-8.97-59.72-11.85-90.41-5.64,15.08-1.98,30.18-1.6,45.31-.49,15.14,1.1,30.13,3.03,45.09,6.14Z"/>
      <g>
        <text class="uuid-6c6edca7-e475-4361-9cee-87103caa8f0f" transform="translate(195.62 149.2) rotate(-26.02)"><tspan x="0" y="0">S</tspan></text>
        <text class="uuid-6c6edca7-e475-4361-9cee-87103caa8f0f" transform="translate(234.53 130.9) rotate(-21.09)"><tspan x="0" y="0">T</tspan></text>
        <text class="uuid-6c6edca7-e475-4361-9cee-87103caa8f0f" transform="translate(270.25 117.58) rotate(-15.75)"><tspan x="0" y="0">A</tspan></text>
        <text class="uuid-6c6edca7-e475-4361-9cee-87103caa8f0f" transform="translate(312.86 106.23) rotate(-9.76)"><tspan x="0" y="0">R</tspan></text>
        <text class="uuid-6c6edca7-e475-4361-9cee-87103caa8f0f" transform="translate(356.24 99.72) rotate(-5.04)"><tspan x="0" y="0"> </tspan></text>
        <text class="uuid-6c6edca7-e475-4361-9cee-87103caa8f0f" transform="translate(379.68 97.76) rotate(-.28)"><tspan x="0" y="0">R</tspan></text>
        <text class="uuid-6c6edca7-e475-4361-9cee-87103caa8f0f" transform="translate(423.42 98.29) rotate(5.54)"><tspan x="0" y="0">E</tspan></text>
        <text class="uuid-6c6edca7-e475-4361-9cee-87103caa8f0f" transform="translate(462.43 102.59) rotate(11.27)"><tspan x="0" y="0">A</tspan></text>
        <text class="uuid-6c6edca7-e475-4361-9cee-87103caa8f0f" transform="translate(505.58 111.98) rotate(16.63)"><tspan x="0" y="0">L</tspan></text>
        <text class="uuid-6c6edca7-e475-4361-9cee-87103caa8f0f" transform="translate(539.81 122.44) rotate(22.39)"><tspan x="0" y="0">M</tspan></text>
        <text class="uuid-6c6edca7-e475-4361-9cee-87103caa8f0f" transform="translate(586.92 142.81) rotate(28.96)"><tspan x="0" y="0">S</tspan></text>
      </g>
      <polygon class="uuid-883c2a75-ab90-4ba7-bcab-d5f73532cd58" points="385.77 347.03 399.08 287.96 401.68 219.12 403.08 288 415.36 347.28 466.53 314.93 517.05 268.1 469.34 317.79 436.1 368.39 495.16 381.7 564 384.3 495.13 385.71 435.84 397.98 468.19 449.16 515.03 499.67 465.34 451.97 414.73 418.72 401.42 477.79 398.82 546.62 397.42 477.75 385.14 418.47 333.97 450.82 283.45 497.65 331.16 447.96 364.4 397.36 305.34 384.05 236.5 381.45 305.37 380.04 364.66 367.77 332.31 316.59 285.47 266.08 335.22 313.83 385.77 347.03"/>
      <path class="uuid-23b41528-0026-4045-9387-e9b50ca2e89e" d="M509,383.5c0,59.37-48.13,107.5-107.5,107.5s-107.5-48.13-107.5-107.5,48.13-107.5,107.5-107.5,107.5,48.13,107.5,107.5ZM401.5,301c-45.56,0-82.5,36.94-82.5,82.5s36.94,82.5,82.5,82.5,82.5-36.94,82.5-82.5-36.94-82.5-82.5-82.5Z"/>
      <g>
        <text class="uuid-6c6edca7-e475-4361-9cee-87103caa8f0f" transform="translate(218.16 693.54) rotate(23.97)"><tspan x="0" y="0">A</tspan></text>
        <text class="uuid-6c6edca7-e475-4361-9cee-87103caa8f0f" transform="translate(261.31 711.79) rotate(17.84)"><tspan x="0" y="0">S</tspan></text>
        <text class="uuid-6c6edca7-e475-4361-9cee-87103caa8f0f" transform="translate(304.97 725.01) rotate(11.75)"><tspan x="0" y="0">S</tspan></text>
        <text class="uuid-6c6edca7-e475-4361-9cee-87103caa8f0f" transform="translate(349.42 733.21) rotate(6.81)"><tspan x="0" y="0">I</tspan></text>
        <text class="uuid-6c6edca7-e475-4361-9cee-87103caa8f0f" transform="translate(376.26 736.17) rotate(1.76)"><tspan x="0" y="0">S</tspan></text>
        <text class="uuid-6c6edca7-e475-4361-9cee-87103caa8f0f" transform="translate(421.86 736.64) rotate(-4.33)"><tspan x="0" y="0">T</tspan></text>
        <text class="uuid-6c6edca7-e475-4361-9cee-87103caa8f0f" transform="translate(462.5 732.9) rotate(-10.47)"><tspan x="0" y="0">A</tspan></text>
        <text class="uuid-6c6edca7-e475-4361-9cee-87103caa8f0f" transform="translate(508.47 723.52) rotate(-16.81)"><tspan x="0" y="0">N</tspan></text>
        <text class="uuid-6c6edca7-e475-4361-9cee-87103caa8f0f" transform="translate(552.66 709.24) rotate(-22.38)"><tspan x="0" y="0">T</tspan></text>
      </g>
    </g>
  </g>
</svg>